<svg width="26" height="26" fill="none" xmlns="http://www.w3.org/2000/svg"><path d="M21.5 6.06a1.56 1.56 0 1 1-3.12 0 1.56 1.56 0 0 1 3.12 0zM13 17.334a4.334 4.334 0 1 1 0-8.667 4.334 4.334 0 0 1 0 8.667zm0-11.009a6.676 6.676 0 1 0 0 13.352 6.676 6.676 0 0 0 0-13.352zm0-3.982c3.471 0 3.882.014 5.253.076.825.01 1.641.161 2.414.448.565.208 1.075.54 1.495.972.432.42.764.93.972 1.495a7.19 7.19 0 0 1 .448 2.414c.063 1.37.076 1.782.076 5.253s-.014 3.882-.076 5.253a7.19 7.19 0 0 1-.448 2.414 4.306 4.306 0 0 1-2.467 2.467 7.19 7.19 0 0 1-2.414.448c-1.37.063-1.782.076-5.253.076s-3.882-.014-5.253-.076a7.19 7.19 0 0 1-2.414-.448 4.027 4.027 0 0 1-1.495-.972 4.027 4.027 0 0 1-.972-1.495 7.192 7.192 0 0 1-.448-2.414c-.062-1.37-.076-1.782-.076-5.253s.014-3.882.076-5.253c.01-.824.161-1.641.448-2.414.208-.565.54-1.075.972-1.495.42-.432.93-.764 1.495-.972a7.192 7.192 0 0 1 2.414-.448c1.37-.062 1.782-.076 5.253-.076zM13 0C9.47 0 9.027.015 7.64.078a9.541 9.541 0 0 0-3.155.605 6.373 6.373 0 0 0-2.303 1.499 6.372 6.372 0 0 0-1.5 2.303A9.54 9.54 0 0 0 .079 7.64C.015 9.027 0 9.47 0 13c0 3.53.015 3.973.078 5.36a9.54 9.54 0 0 0 .605 3.155 6.373 6.373 0 0 0 1.499 2.303 6.374 6.374 0 0 0 2.302 1.5 9.543 9.543 0 0 0 3.156.604C9.027 25.985 9.47 26 13 26c3.53 0 3.973-.015 5.36-.078a9.542 9.542 0 0 0 3.155-.604 6.649 6.649 0 0 0 3.802-3.803 9.54 9.54 0 0 0 .605-3.155c.063-1.387.078-1.83.078-5.36 0-3.53-.015-3.973-.078-5.36a9.543 9.543 0 0 0-.604-3.155 6.374 6.374 0 0 0-1.5-2.303 6.37 6.37 0 0 0-2.303-1.5A9.54 9.54 0 0 0 18.36.079C16.973.015 16.53 0 13 0z" fill="#fff"/></svg>