<svg width="26" height="26" viewBox="0 0 26 26" fill="none" xmlns="http://www.w3.org/2000/svg">
<path d="M13.8874 26H1.435C1.24655 26 1.05994 25.9629 0.885828 25.8908C0.71172 25.8186 0.553523 25.7129 0.42027 25.5797C0.287017 25.4464 0.181317 25.2882 0.109207 25.1141C0.0370969 24.94 -1.18081e-05 24.7534 1.12931e-08 24.5649V1.435C-2.36319e-05 1.24655 0.0370776 1.05993 0.109185 0.885821C0.181292 0.711708 0.286992 0.553506 0.420249 0.420249C0.553506 0.286992 0.711708 0.181292 0.885821 0.109185C1.05993 0.0370776 1.24655 -2.36319e-05 1.435 1.12931e-08H24.5651C24.7535 -1.30278e-06 24.9401 0.037116 25.1142 0.109233C25.2883 0.181349 25.4465 0.287052 25.5797 0.420306C25.713 0.55356 25.8187 0.711755 25.8908 0.885857C25.9629 1.05996 26 1.24656 26 1.435V24.5649C26 24.9455 25.8488 25.3105 25.5797 25.5796C25.3106 25.8487 24.9456 26 24.5651 26H17.9396V15.9314H21.3192L21.8252 12.0075H17.9396V9.5023C17.9396 8.36621 18.2551 7.59206 19.8842 7.59206L21.962 7.59113V4.08157C20.9563 3.97493 19.9455 3.92331 18.9342 3.92692C15.9384 3.92692 13.8874 5.75553 13.8874 9.1137V12.0075H10.4992V15.9314H13.8874V26Z" fill="white"/>
</svg>
