<svg width="26" height="26" viewBox="0 0 26 26" fill="none" xmlns="http://www.w3.org/2000/svg">
<path d="M21.4995 6.06061C21.4995 6.36914 21.408 6.67075 21.2366 6.92728C21.0651 7.18381 20.8215 7.38375 20.5365 7.50181C20.2514 7.61988 19.9377 7.65077 19.6351 7.59057C19.3325 7.53038 19.0546 7.3818 18.8364 7.16364C18.6182 6.94547 18.4697 6.66751 18.4095 6.36491C18.3493 6.0623 18.3802 5.74864 18.4982 5.46359C18.6163 5.17854 18.8162 4.9349 19.0728 4.76348C19.3293 4.59206 19.6309 4.50056 19.9394 4.50055C20.1443 4.50054 20.3472 4.54089 20.5365 4.61929C20.7257 4.69768 20.8977 4.8126 21.0426 4.95746C21.1875 5.10233 21.3024 5.27431 21.3808 5.46359C21.4592 5.65287 21.4995 5.85574 21.4995 6.06061ZM13.0001 17.3334C12.143 17.3334 11.3052 17.0792 10.5926 16.6031C9.87998 16.1269 9.32455 15.4502 8.99656 14.6584C8.66857 13.8666 8.58275 12.9953 8.74995 12.1547C8.91714 11.3141 9.32984 10.542 9.93587 9.93592C10.5419 9.32989 11.314 8.91717 12.1546 8.74996C12.9952 8.58275 13.8665 8.66856 14.6583 8.99653C15.4501 9.32451 16.1269 9.87992 16.6031 10.5925C17.0792 11.3051 17.3334 12.1429 17.3334 13C17.3334 14.1493 16.8768 15.2515 16.0642 16.0641C15.2515 16.8768 14.1493 17.3333 13.0001 17.3334ZM13.0001 6.32437C11.6798 6.32437 10.3891 6.71589 9.29126 7.44942C8.19344 8.18295 7.3378 9.22555 6.83253 10.4454C6.32725 11.6652 6.19505 13.0075 6.45263 14.3024C6.71021 15.5974 7.346 16.7869 8.27961 17.7205C9.21322 18.6541 10.4027 19.2899 11.6977 19.5475C12.9926 19.8051 14.3349 19.6729 15.5547 19.1676C16.7745 18.6624 17.8171 17.8067 18.5507 16.7089C19.2842 15.6111 19.6758 14.3204 19.6758 13.0001C19.6758 12.1234 19.5031 11.2553 19.1676 10.4454C18.8321 9.63547 18.3404 8.89954 17.7205 8.27964C17.1006 7.65973 16.3647 7.168 15.5548 6.83251C14.7448 6.49702 13.8767 6.32435 13.0001 6.32435V6.32437ZM13.0001 2.34237C16.4712 2.34237 16.8824 2.35564 18.2532 2.4182C19.0775 2.42795 19.8941 2.57936 20.6671 2.86583C21.2318 3.07422 21.7425 3.40652 22.1618 3.83829C22.5936 4.25762 22.9259 4.76837 23.1343 5.333C23.4208 6.10604 23.5722 6.92258 23.5819 7.74694C23.6445 9.11774 23.6578 9.52894 23.6578 13.0001C23.6578 16.4712 23.6445 16.8824 23.5819 18.2532C23.5722 19.0775 23.4208 19.8941 23.1343 20.6671C22.918 21.2278 22.5868 21.7369 22.1619 22.1619C21.7369 22.5868 21.2278 22.918 20.6671 23.1343C19.8941 23.4208 19.0775 23.5722 18.2532 23.5819C16.8826 23.6445 16.4715 23.6578 13.0001 23.6578C9.52869 23.6578 9.11757 23.6445 7.74693 23.5819C6.92258 23.5722 6.10604 23.4208 5.333 23.1343C4.76833 22.9259 4.25755 22.5936 3.83821 22.1618C3.40644 21.7425 3.07414 21.2318 2.86575 20.6671C2.57928 19.8941 2.42787 19.0775 2.41812 18.2532C2.35561 16.8824 2.34229 16.4712 2.34229 13.0001C2.34229 9.529 2.35556 9.11774 2.41812 7.74694C2.42787 6.92258 2.57928 6.10604 2.86575 5.333C3.07411 4.76834 3.40641 4.25757 3.8382 3.83826C4.25752 3.40646 4.76831 3.07416 5.333 2.8658C6.10604 2.57933 6.92258 2.42792 7.74694 2.41817C9.11768 2.35561 9.52886 2.34234 13.0001 2.34234V2.34237ZM13.0001 3e-05C9.46944 0 9.02673 0.01495 7.64017 0.07822C6.56169 0.0998124 5.49468 0.304136 4.48452 0.6825C3.61709 1.00891 2.83131 1.5206 2.18195 2.18189C1.52064 2.83125 1.00895 3.61707 0.68256 4.48452C0.304191 5.49466 0.0998639 6.56166 0.07827 7.64012C0.015 9.02673 0 9.46944 0 13C0 16.5306 0.015 16.9733 0.07822 18.3599C0.0997759 19.4383 0.3041 20.5053 0.6825 21.5155C1.00892 22.3829 1.52061 23.1687 2.18189 23.8181C2.83125 24.4794 3.61704 24.9911 4.48447 25.3176C5.49464 25.6959 6.56165 25.9002 7.64012 25.9218C9.02668 25.985 9.46938 26 13 26C16.5306 26 16.9733 25.985 18.3599 25.9218C19.4383 25.9002 20.5053 25.6959 21.5154 25.3176C22.379 24.9836 23.1633 24.4728 23.8181 23.8181C24.4728 23.1634 24.9835 22.3791 25.3175 21.5155C25.6959 20.5053 25.9002 19.4383 25.9218 18.3599C25.9851 16.9733 26 16.5306 26 13C26 9.46944 25.9851 9.02668 25.9218 7.64012C25.9002 6.56167 25.6959 5.49468 25.3176 4.48453C24.9911 3.61709 24.4794 2.83129 23.8181 2.1819C23.1688 1.52058 22.383 1.00888 21.5155 0.6825C20.5054 0.304135 19.4384 0.0998113 18.3599 0.07822C16.9733 0.01495 16.5306 0 13.0001 0V3e-05Z" fill="white"/>
</svg>
